# xmcd
#
# Track frame offsets:
#	150
#	23526
#	47941
#	67298
#	94855
#	118365
#	141555
#	156715
#	173507
#	206444
#	225758
#
# Disc length: 3446 seconds
#
# Revision: 1
# Processed by: cddbd v1.5.2PL0 Copyright (c) Steve Scherf et al.
# Submitted via: audiograbber 1.83.01
#
DISCID=9d0d740b
DTITLE=Kevin Purcell and the Nightburners - House of Fire
DYEAR=2006
DGENRE=Blues
TTITLE0=Boogie 'til Midnight (Ron Brown - Henry)
TTITLE1=Can't Be Satisfied (McKinley Morganfield)
TTITLE2=Good Day for the Blues (David Grissom)
TTITLE3=Killn' Floor (Chester Burnett)
TTITLE4=Livin' in the Light (Kevin Purcell)
TTITLE5=Orange Blossom Special (Rouse and Wise)
TTITLE6=Rocket 88 (Jackie Brenston)
TTITLE7=Somehow (Kevin Purcell)
TTITLE8=That's Alright (Kevin Purcell)
TTITLE9=All Along the Watchtower (Bob Dylan)
TTITLE10=Whippin' Post (Greg Allman)
EXTD=
EXTT0=
EXTT1=
EXTT2=
EXTT3=
EXTT4=
EXTT5=
EXTT6=
EXTT7=
EXTT8=
EXTT9=
EXTT10=
PLAYORDER=
